<?xml version="1.0" encoding="UTF-8"?>
<svg xmlns="http://www.w3.org/2000/svg" viewBox="0 0 1000 1000">
  <!-- Outfit Regular lowercase m, matching the Magican mark used on app icons. -->
  <path fill="#000" d="M120.0 580.0V247.5H183.0V580.0ZM344.7 580.0V379.1Q344.7 342.0 321.95 320.65Q299.2 299.3 264.9 299.3Q241.8 299.3 223.6 309.1Q205.4 318.9 194.2 336.4Q183.0 353.9 183.0 378.4L157.1 365.8Q157.1 328.0 173.55 300.0Q190.0 272.0 218.7 256.25Q247.4 240.5 283.1 240.5Q318.1 240.5 346.45 255.9Q374.8 271.3 391.25 299.3Q407.7 327.3 407.7 365.8V580.0ZM569.4 580.0V379.1Q569.4 342.0 546.65 320.65Q523.9 299.3 490.3 299.3Q467.2 299.3 448.65 309.1Q430.1 318.9 418.9 336.4Q407.7 353.9 407.7 378.4L372.0 365.8Q374.1 327.3 392.65 299.65Q411.2 272.0 440.6 256.25Q470.0 240.5 505.0 240.5Q541.4 240.5 570.1 255.9Q598.8 271.3 615.95 299.3Q633.1 327.3 633.1 366.5V580.0Z"/>

  <!-- Compact microphone at the m's lower-right. SwiftDraw expands strokes
       into the one SF Symbol glyph Control Center serializes. -->
  <path fill="#000" d="M710 565C710 523 744 489 786 489C828 489 862 523 862 565V674C862 716 828 750 786 750C744 750 710 716 710 674Z"/>
  <path fill="none" stroke="#000" stroke-width="34" stroke-linecap="round" stroke-linejoin="round" d="M655 657V680C655 757 714 815 786 815C858 815 917 757 917 680V657M786 815V886M728 886H844"/>
</svg>
